<svg width="138" height="138" viewBox="0 0 138 138" fill="none" xmlns="http://www.w3.org/2000/svg">
<path d="M68.9892 130.143C102.837 130.143 130.276 102.706 130.276 68.8621C130.276 35.0177 102.837 7.58142 68.9892 7.58142C35.1413 7.58142 7.70215 35.0177 7.70215 68.8621C7.70215 102.706 35.1413 130.143 68.9892 130.143Z" fill="#FEF0EE" stroke="#272726" stroke-linecap="round" stroke-linejoin="round"/>
<path d="M68.9343 137.833C55.3016 137.842 41.9728 133.807 30.6351 126.237C19.2975 118.668 10.4608 107.905 5.24381 95.3117C0.0268364 82.718 -1.33587 68.8598 1.3282 55.4913C3.99228 42.1228 10.5633 29.8453 20.2095 20.213C28.2221 12.1921 38.0898 6.27159 48.9381 2.97607C59.7864 -0.319437 71.2803 -0.888128 82.401 1.32041C93.5216 3.52894 103.926 8.44649 112.691 15.6372C121.456 22.8279 128.312 32.0697 132.651 42.5435C136.99 53.0173 138.678 64.3996 137.565 75.6816C136.452 86.9636 132.573 97.7969 126.271 107.221C119.969 116.646 111.44 124.37 101.438 129.71C91.4367 135.05 80.2722 137.84 68.9343 137.833ZM68.9343 2.03413C32.0338 2.03413 2.032 32.0424 2.032 68.9295C2.032 105.817 32.0434 135.825 68.9343 135.825C105.825 135.825 135.837 105.817 135.837 68.9295C135.837 32.0424 105.825 2.03413 68.9343 2.03413Z" fill="url(#paint0_linear_2206_273)"/>
<path d="M27.8953 52.3291C27.8953 52.3291 33.2539 48.3122 33.7545 47.6416C34.0946 47.186 36.9632 44.8824 38.7986 43.4482C39.7911 42.6657 40.6654 41.7439 41.3945 40.7115L43.2074 38.1447C43.9329 37.1181 44.4967 35.9862 44.8792 34.7887L46.6472 29.2478L47.9853 25.5998C48.8997 23.1101 52.5064 18.8622 52.5064 18.8622C52.5064 18.8622 55.7889 15.8719 59.203 14.1041C63.3744 11.9416 66.5478 10.9919 71.6658 10.8251C76.7837 10.6583 83.6472 15.5415 83.6472 15.5415C83.6472 15.5415 87.1768 19.1798 87.8186 21.6984C88.4603 24.217 89.8273 28.0896 89.3267 30.7558C88.8261 33.422 91.3354 28.5676 91.3354 34.2593C91.3419 37.6792 91.0671 41.0937 90.5139 44.4685C90.5139 44.4685 89.6765 53.3398 89.5096 55.0146C89.3427 56.6894 89.5096 67.4022 92.0221 70.4149C94.5345 73.4276 92.1889 77.6114 101.565 83.1363C110.941 88.6612 125.672 84.8111 125.672 84.8111C125.672 84.8111 122.993 96.3614 116.633 103.741C110.273 111.12 104.915 115.962 98.7187 118.82C92.5226 121.679 88.1716 121.833 88.1716 121.833L87.2699 121.916L86.4324 122.054L85.0109 122.138L83.644 121.913C83.5665 121.903 83.4922 121.875 83.4266 121.833C83.3609 121.79 83.3055 121.733 83.2644 121.667C83.2233 121.6 83.1975 121.525 83.1888 121.447C83.18 121.37 83.1887 121.291 83.2141 121.217L83.5895 120.129L85.7554 117.133L89.8979 112.91L94.1045 108.216C95.2983 106.647 96.2311 104.895 96.8672 103.028C97.4641 101.286 97.7047 96.9325 96.8672 93.4032C96.0298 89.874 91.1846 85.1704 91.1846 85.1704L85.6591 80.6498L81.6385 75.1089L83.3135 70.755L83.6344 67.9092L83.2943 65.3007C83.2437 64.9093 83.1123 64.5326 82.9085 64.1946C82.7047 63.8566 82.4329 63.5646 82.1102 63.3372L80.2877 62.0538L76.7581 60.2122L73.5493 58.608C73.2372 58.451 72.9076 58.3315 72.5674 58.2519L72.391 58.2101C71.9016 58.0949 71.4471 57.8639 71.0657 57.5364L68.5565 55.3803C68.2429 55.1097 67.9912 54.7749 67.8185 54.3984C67.6457 54.022 67.556 53.6128 67.5554 53.1986V52.2361C67.5558 51.5452 67.8118 50.879 68.2741 50.3656L69.0635 49.4897L72.1182 51.989C72.5293 52.3256 73.0259 52.5411 73.5525 52.6115L74.5729 52.7462C74.7823 52.774 74.9953 52.748 75.1919 52.6705C75.3884 52.593 75.5619 52.4667 75.696 52.3035L76.7645 50.9976L77.7688 49.6597L78.7026 49.4255C78.8221 49.3955 78.9299 49.3302 79.0117 49.2381C79.0936 49.1459 79.1457 49.0312 79.1614 48.909L79.2641 48.0876C79.266 48.0746 79.2705 48.062 79.2775 48.0508C79.2844 48.0396 79.2936 48.03 79.3044 48.0224C79.3153 48.0149 79.3275 48.0097 79.3405 48.0071C79.3534 48.0045 79.3667 48.0046 79.3796 48.0074L79.617 48.0587C79.7454 48.0877 79.8789 48.0844 80.0058 48.0494C80.1326 48.0143 80.2488 47.9484 80.3441 47.8576C80.4393 47.7668 80.5106 47.6539 80.5518 47.5289C80.5929 47.4039 80.6024 47.2707 80.5797 47.1411L80.3679 45.9412C80.3611 45.9063 80.3653 45.8702 80.38 45.8379C80.3948 45.8056 80.4193 45.7787 80.45 45.7611C80.4808 45.7434 80.5164 45.7357 80.5517 45.7393C80.587 45.7428 80.6204 45.7573 80.6471 45.7808L80.9487 46.0406C81.1052 46.1789 81.2911 46.2797 81.4924 46.3353C81.6937 46.3909 81.905 46.3998 82.1102 46.3615L82.752 46.2299C82.8533 46.209 82.944 46.1532 83.0085 46.0723C83.073 45.9915 83.1071 45.8906 83.1049 45.7872L82.9574 41.1703C82.9541 41.0377 82.977 40.9058 83.0247 40.7821L83.5381 39.4987C83.5907 39.3662 83.673 39.2477 83.7788 39.1522L85.489 37.5865C85.5819 37.5014 85.6571 37.3989 85.7104 37.2849L86.5736 35.4497C86.6208 35.3554 86.644 35.251 86.6413 35.1457C86.6386 35.0404 86.6099 34.9373 86.5579 34.8457C86.5059 34.754 86.4321 34.6766 86.3431 34.6202C86.254 34.5638 86.1525 34.5303 86.0474 34.5224L76.742 33.608L73.729 37.1373C73.729 37.1373 68.0367 42.9959 66.8655 44.0001C65.6943 45.0043 57.1558 49.3581 57.1558 49.3581C57.1558 49.3581 52.1342 51.0329 49.288 52.8874C46.4418 54.7419 43.5957 59.917 43.5957 59.917L39.4243 67.1135L33.4304 76.604L27.9049 88.3211V90.1627L31.5886 94.6802L39.6104 103.888L46.3199 109.76L53.1834 114.114C53.1834 114.114 53.1834 115.788 47.1574 112.606C41.1314 109.423 33.7641 104.739 33.7641 104.739C33.7641 104.739 23.217 95.3636 23.0501 93.5091C22.8832 91.6546 19.3665 87.9842 17.6915 81.638C16.0165 75.2917 18.8627 66.3178 18.8627 66.3178L22.5463 58.5374L27.8953 52.3291Z" fill="#1C75BC" stroke="black" stroke-miterlimit="10"/>
<path d="M39.9468 87.1272L43.6946 83.2258C43.8739 83.037 44.0432 82.8389 44.2016 82.6323L49.1559 76.071L54.2064 83.0173C54.4097 83.2967 54.5869 83.5942 54.7359 83.906L57.3446 89.386C57.6837 90.0974 57.8591 90.8758 57.858 91.6639V100.721C57.8582 101.788 57.5688 102.835 57.0205 103.75L54.845 107.376L47.8371 100.092C47.2585 99.4888 46.7534 98.819 46.3322 98.0968L39.9468 87.1272Z" fill="#1C75BC" stroke="black" stroke-miterlimit="10"/>
<path d="M90.661 98.5753C90.661 98.5272 90.661 98.4791 90.661 98.431C90.6467 97.4734 90.2578 96.5596 89.5776 95.8854C88.8973 95.2113 87.98 94.8305 87.0223 94.8247C86.3255 94.84 85.6468 95.0493 85.0624 95.429C84.478 95.8087 84.011 96.3439 83.7141 96.9743C83.4177 96.3434 82.9509 95.8079 82.3664 95.4281C81.7818 95.0482 81.1028 94.8393 80.4058 94.8247C79.4481 94.8305 78.5308 95.2113 77.8505 95.8854C77.1703 96.5596 76.7814 97.4734 76.7671 98.431C76.7671 98.4791 76.7671 98.5272 76.7671 98.5753C76.7671 98.5753 76.5618 100.869 79.1159 103.388C80.578 104.803 82.1128 106.14 83.7141 107.395C85.3161 106.141 86.851 104.804 88.3122 103.388C90.8663 100.869 90.661 98.5753 90.661 98.5753Z" fill="#BE1E2D" stroke="#272726" stroke-linecap="round" stroke-linejoin="round"/>
<defs>
<linearGradient id="paint0_linear_2206_273" x1="128.623" y1="103.391" x2="9.25141" y2="34.4637" gradientUnits="userSpaceOnUse">
<stop offset="0.07" stop-color="#F8E1AB"/>
<stop offset="0.12" stop-color="#FFF3C5"/>
<stop offset="0.28" stop-color="#DCB272"/>
<stop offset="0.33" stop-color="#D3A263"/>
<stop offset="0.39" stop-color="#C7A44C"/>
<stop offset="0.66" stop-color="#EBDF91"/>
<stop offset="0.73" stop-color="#F2E4C4"/>
<stop offset="0.95" stop-color="#D0983F"/>
<stop offset="1" stop-color="#A2822E"/>
</linearGradient>
</defs>
</svg>
