<svg width="138" height="138" viewBox="0 0 138 138" fill="none" xmlns="http://www.w3.org/2000/svg">
<path d="M68.9345 130.21C102.782 130.21 130.221 102.774 130.221 68.9295C130.221 35.0851 102.782 7.6488 68.9345 7.6488C35.0866 7.6488 7.64746 35.0851 7.64746 68.9295C7.64746 102.774 35.0866 130.21 68.9345 130.21Z" fill="#FEF0EE" stroke="#272726" stroke-linecap="round" stroke-linejoin="round"/>
<path d="M33.0448 92.3443C33.0448 92.3443 30.035 86.3381 28.1034 84.7339C26.1717 83.1297 27.0284 80.8838 30.5741 81.4036C34.1198 81.9234 38.9553 88.2632 41.317 91.1507C43.6786 94.0383 46.3675 94.2661 46.3675 94.2661C55.0696 95.5495 57.6238 96.1719 62.3888 103.692C68.5111 113.372 63.8809 117.886 57.4634 117.46C51.0459 117.033 47.5804 113.809 47.5804 113.809C47.5804 113.809 38.4355 108.033 34.8899 106.429C31.3442 104.825 23.502 88.3819 21.6763 83.9703C19.8505 79.5588 21.2463 63.8824 23.8261 63.9883C26.4059 64.0942 27.8017 65.5925 27.8017 71.2939C27.7994 74.6922 28.0138 78.0871 28.4435 81.4581" stroke="#272726" stroke-width="3" stroke-linecap="round" stroke-linejoin="round"/>
<path d="M104.825 92.3446C104.825 92.3446 107.841 86.3384 109.766 84.7342C111.691 83.13 110.841 80.8841 107.295 81.4039C103.75 81.9236 98.914 88.2635 96.5524 91.151C94.1907 94.0386 91.5018 94.2664 91.5018 94.2664C82.7997 95.5498 80.2455 96.1722 75.4805 103.693C69.3583 113.36 73.9756 117.874 80.422 117.444C86.8684 117.014 90.3049 113.793 90.3049 113.793C90.3049 113.793 99.4499 108.018 102.996 106.413C106.541 104.809 114.383 88.3661 116.209 83.9546C118.035 79.543 116.639 63.8667 114.059 63.9726C111.479 64.0785 110.087 65.596 110.087 71.291C110.089 74.6893 109.875 78.0842 109.445 81.4552" stroke="#272726" stroke-width="3" stroke-linecap="round" stroke-linejoin="round"/>
<path d="M68.9343 137.833C55.3016 137.842 41.9728 133.807 30.6351 126.237C19.2975 118.668 10.4608 107.905 5.24381 95.3117C0.0268364 82.718 -1.33587 68.8598 1.3282 55.4913C3.99228 42.1228 10.5633 29.8453 20.2095 20.213C28.2221 12.1921 38.0898 6.27159 48.9381 2.97607C59.7864 -0.319437 71.2803 -0.888128 82.401 1.32041C93.5216 3.52894 103.926 8.44649 112.691 15.6372C121.456 22.8279 128.312 32.0697 132.651 42.5435C136.99 53.0173 138.678 64.3996 137.565 75.6816C136.452 86.9636 132.573 97.7969 126.271 107.221C119.969 116.646 111.44 124.37 101.438 129.71C91.4367 135.05 80.2722 137.84 68.9343 137.833ZM68.9343 2.03413C32.0338 2.03413 2.032 32.0424 2.032 68.9295C2.032 105.817 32.0434 135.825 68.9343 135.825C105.825 135.825 135.837 105.817 135.837 68.9295C135.837 32.0424 105.825 2.03413 68.9343 2.03413Z" fill="url(#paint0_linear_2206_263)"/>
<path d="M38.5734 46.9295C38.5734 46.9295 42.302 44.1317 42.6517 43.6665C42.8892 43.3457 44.8978 41.7415 46.1621 40.7468C46.8526 40.2015 47.461 39.5597 47.9686 38.841L49.2296 37.054C49.7334 36.339 50.1251 35.5514 50.3912 34.7182L51.6202 30.8681L52.5539 28.3303C53.1957 26.5977 55.7017 23.6332 55.7017 23.6332C57.1233 22.3578 58.6827 21.2451 60.3512 20.3157C63.2583 18.8109 65.4659 18.15 69.0148 18.0345C72.5636 17.919 77.3575 21.3199 77.3575 21.3199C77.3575 21.3199 79.8058 23.8513 80.271 25.6031C80.7363 27.3549 81.6701 30.0532 81.3203 31.9077C80.9705 33.7621 82.7193 30.3837 82.7193 34.3461C82.732 36.726 82.5485 39.1029 82.1706 41.4527C82.1706 41.4527 81.5866 47.6289 81.4711 48.7935C81.3556 49.9582 81.4711 57.4146 83.2199 59.5129C84.9686 61.6112 83.3354 64.5244 89.862 68.3681C96.3886 72.2118 106.644 69.5327 106.644 69.5327C106.644 69.5327 104.779 77.573 100.351 82.6872C95.9233 87.8014 92.1947 91.1927 87.8822 93.1755C83.5696 95.1583 80.5406 95.2738 80.5406 95.2738L79.8988 95.3316L79.3148 95.4278L78.3233 95.4856L77.3607 95.3316C77.3066 95.3246 77.2547 95.3057 77.2089 95.2761C77.163 95.2465 77.1244 95.207 77.0958 95.1606C77.0672 95.1141 77.0493 95.0619 77.0435 95.0076C77.0377 94.9534 77.0441 94.8985 77.0623 94.8471L77.3222 94.0899L78.8303 92.0044L81.7182 89.0655L84.6478 85.7994C85.4798 84.7066 86.1299 83.4867 86.573 82.1867C86.9869 80.9739 87.157 77.9323 86.573 75.4875C85.989 73.0427 82.6166 69.7573 82.6166 69.7573L78.7661 66.6099L75.9745 62.7598L77.1393 59.731L77.3735 57.7514L77.1361 55.9355C77.1007 55.663 77.0091 55.4009 76.8671 55.1656C76.7252 54.9303 76.536 54.7271 76.3115 54.5687L75.044 53.6735L72.5957 52.3902L70.3496 51.2736C70.1324 51.1644 69.903 51.0815 69.6661 51.0266L69.5442 50.9977C69.2032 50.9174 68.8864 50.7568 68.6201 50.5293L66.8745 49.0278C66.6561 48.8398 66.4808 48.6069 66.3606 48.345C66.2404 48.0831 66.1782 47.7983 66.1782 47.5102V46.8749C66.1763 46.3934 66.3549 45.9286 66.6788 45.5723L67.2275 44.9627L69.3517 46.7017C69.6374 46.9362 69.9831 47.0863 70.3496 47.1348L71.0587 47.2278C71.2058 47.2454 71.3548 47.2252 71.4919 47.1691C71.6289 47.1129 71.7493 47.0227 71.8417 46.907L72.5861 45.999L73.2856 45.0654L73.9273 44.9017C74.0112 44.882 74.087 44.8369 74.1444 44.7726C74.2018 44.7083 74.238 44.628 74.2482 44.5424L74.3188 43.9713C74.3199 43.9622 74.3229 43.9534 74.3277 43.9455C74.3325 43.9376 74.3389 43.9309 74.3465 43.9257C74.3541 43.9205 74.3627 43.9171 74.3718 43.9155C74.3808 43.914 74.3901 43.9144 74.399 43.9168L74.5627 43.952C74.6522 43.9721 74.7452 43.9697 74.8336 43.945C74.9219 43.9203 75.0027 43.8741 75.0688 43.8105C75.1349 43.747 75.1843 43.668 75.2124 43.5807C75.2406 43.4935 75.2466 43.4006 75.2301 43.3104L75.0825 42.4762C75.0791 42.4525 75.0828 42.4284 75.0934 42.4069C75.1039 42.3854 75.1206 42.3676 75.1415 42.3558C75.1623 42.344 75.1862 42.3388 75.21 42.3408C75.2338 42.3428 75.2565 42.352 75.275 42.3671L75.4868 42.5468C75.597 42.6406 75.7269 42.7083 75.8669 42.745C76.0069 42.7816 76.1534 42.7863 76.2954 42.7585L76.751 42.6687C76.8241 42.6547 76.8894 42.6142 76.9344 42.555C76.9795 42.4957 77.001 42.422 76.9949 42.3478L76.8922 39.1394C76.8887 39.0472 76.9051 38.9553 76.9404 38.8699L77.2997 37.9748C77.3361 37.8828 77.3932 37.8004 77.4666 37.7341L78.657 36.6433C78.7208 36.5839 78.773 36.5132 78.8111 36.4347L79.4143 35.1514C79.4449 35.0858 79.4594 35.0139 79.4564 34.9416C79.4535 34.8693 79.4333 34.7988 79.3974 34.7359C79.3616 34.673 79.3112 34.6197 79.2505 34.5803C79.1898 34.541 79.1205 34.5167 79.0485 34.5097L72.5797 33.868L70.4812 36.316C70.4812 36.316 66.5184 40.3939 65.7033 41.0934C64.8883 41.7928 58.9457 44.8215 58.9457 44.8215C58.9457 44.8215 55.4482 45.9862 53.4684 47.2695C51.4886 48.5529 49.5056 52.1624 49.5056 52.1624L46.5921 57.1739L42.3982 63.8153L38.5477 71.9711V73.2545L41.1147 76.4019L46.7076 82.8188L51.3699 86.8967L56.1798 89.935C56.1798 89.935 56.1798 91.0997 51.986 88.8859C47.7921 86.6721 42.6646 83.4091 42.6646 83.4091C42.6646 83.4091 35.323 76.8832 35.1978 75.603C35.0727 74.3229 32.6308 71.7529 31.4693 67.3285C30.3077 62.9041 32.2843 56.667 32.2843 56.667L34.8513 51.2512L38.5734 46.9295Z" fill="#1C75BC" stroke="black" stroke-miterlimit="10"/>
<path d="M46.9639 71.1463L49.5726 68.4287C49.6979 68.2975 49.8158 68.1593 49.9255 68.0148L53.3749 63.4557L56.9046 68.2908C57.0464 68.4853 57.17 68.6926 57.2736 68.91L59.0672 72.7248C59.3043 73.2195 59.4271 73.7612 59.4266 74.3097V80.6143C59.4261 81.3568 59.2243 82.0853 58.8426 82.7222L57.3281 85.244L52.4572 80.1683C52.0539 79.7482 51.7017 79.2819 51.408 78.7791L46.9639 71.1463Z" fill="#1C75BC" stroke="black" stroke-miterlimit="10"/>
<path d="M82.2634 79.1161C82.2634 79.084 82.2634 79.0488 82.2634 79.0167C82.2533 78.3499 81.9822 77.7137 81.5083 77.2447C81.0343 76.7756 80.3953 76.511 79.7285 76.5077C79.243 76.5179 78.77 76.6637 78.3629 76.9284C77.9558 77.1932 77.6308 77.5664 77.4246 78.006C77.2178 77.5669 76.8927 77.194 76.4857 76.9294C76.0787 76.6647 75.6061 76.5187 75.1207 76.5077C74.4554 76.5158 73.8192 76.782 73.3463 77.2501C72.8734 77.7181 72.6007 78.3515 72.5858 79.0167C72.5858 79.0488 72.5858 79.084 72.5858 79.1161C72.5858 79.1161 72.4414 80.7203 74.2191 82.4561C75.2402 83.4398 76.3112 84.3704 77.4278 85.2442C78.5452 84.3713 79.6162 83.4406 80.6366 82.4561C82.4046 80.7139 82.2634 79.1161 82.2634 79.1161Z" fill="#BE1E2D" stroke="#272726" stroke-linecap="round" stroke-linejoin="round"/>
<defs>
<linearGradient id="paint0_linear_2206_263" x1="128.623" y1="103.391" x2="9.25141" y2="34.4637" gradientUnits="userSpaceOnUse">
<stop offset="0.07" stop-color="#F8E1AB"/>
<stop offset="0.12" stop-color="#FFF3C5"/>
<stop offset="0.28" stop-color="#DCB272"/>
<stop offset="0.33" stop-color="#D3A263"/>
<stop offset="0.39" stop-color="#C7A44C"/>
<stop offset="0.66" stop-color="#EBDF91"/>
<stop offset="0.73" stop-color="#F2E4C4"/>
<stop offset="0.95" stop-color="#D0983F"/>
<stop offset="1" stop-color="#A2822E"/>
</linearGradient>
</defs>
</svg>
