<svg width="138" height="138" viewBox="0 0 138 138" fill="none" xmlns="http://www.w3.org/2000/svg">
<path d="M68.9345 130.024C102.782 130.024 130.221 102.587 130.221 68.7431C130.221 34.8987 102.782 7.4624 68.9345 7.4624C35.0866 7.4624 7.64746 34.8987 7.64746 68.7431C7.64746 102.587 35.0866 130.024 68.9345 130.024Z" fill="#FEF0EE" stroke="#272726" stroke-linecap="round" stroke-linejoin="round"/>
<path d="M94.903 49.6626C94.903 49.4829 94.903 49.3064 94.903 49.1268C94.903 41.9046 88.8064 35.6514 81.2947 35.6514C75.8014 35.6514 71.0685 39.1807 68.9218 43.6949C66.7687 39.1743 62.0519 35.645 56.5585 35.645C49.0436 35.645 42.9502 41.9046 42.9502 49.1204C42.9502 49.3 42.9502 49.4797 42.9502 49.6562C42.9502 49.6562 42.1833 58.2355 51.7326 67.604C56.074 71.9546 60.9288 76.0871 68.9218 82.5841C76.9148 76.0871 81.7568 71.9546 86.111 67.604C95.6731 58.2419 94.903 49.6626 94.903 49.6626Z" fill="#BE1E2D" stroke="#272726" stroke-width="3" stroke-linecap="round" stroke-linejoin="round"/>
<path d="M33.0443 84.0025C33.0443 84.0025 30.0345 77.9963 28.1029 76.3921C26.1712 74.7879 27.0279 72.542 30.5736 73.0618C34.1193 73.5816 38.9548 79.9214 41.3165 82.809C43.6781 85.6965 46.367 85.9243 46.367 85.9243C55.0692 87.2077 57.6233 87.8301 62.3883 95.3506C68.5106 105.03 63.8804 109.545 57.4629 109.118C51.0454 108.691 47.58 105.467 47.58 105.467C47.58 105.467 38.435 99.6916 34.8894 98.0874C31.3437 96.4832 23.5015 80.0401 21.6758 75.6285C19.85 71.217 21.2458 55.5407 23.8256 55.6465C26.4055 55.7524 27.8013 57.2507 27.8013 62.9521C27.799 66.3504 28.0133 69.7453 28.443 73.1163" stroke="#272726" stroke-width="3" stroke-linecap="round" stroke-linejoin="round"/>
<path d="M104.824 84.0024C104.824 84.0024 107.84 77.9963 109.765 76.3921C111.691 74.7879 110.84 72.542 107.295 73.0617C103.749 73.5815 98.9135 79.9213 96.5519 82.8089C94.1902 85.6965 91.5013 85.9242 91.5013 85.9242C82.7992 87.2076 80.245 87.83 75.4801 95.3506C69.3578 105.018 73.9752 109.532 80.4215 109.102C86.8679 108.672 90.3045 105.451 90.3045 105.451C90.3045 105.451 99.4494 99.6755 102.995 98.0713C106.541 96.4671 114.383 80.024 116.209 75.6124C118.034 71.2008 116.639 55.5245 114.059 55.6304C111.479 55.7363 110.086 57.2539 110.086 62.9488C110.089 66.3471 109.874 69.7421 109.445 73.1131" stroke="#272726" stroke-width="3" stroke-linecap="round" stroke-linejoin="round"/>
<path d="M68.9343 137.833C55.3016 137.842 41.9728 133.807 30.6351 126.237C19.2975 118.668 10.4608 107.905 5.24381 95.3117C0.0268364 82.718 -1.33587 68.8598 1.3282 55.4913C3.99228 42.1228 10.5633 29.8453 20.2095 20.213C28.2221 12.1921 38.0898 6.27159 48.9381 2.97607C59.7864 -0.319437 71.2803 -0.888128 82.401 1.32041C93.5216 3.52894 103.926 8.44649 112.691 15.6372C121.456 22.8279 128.312 32.0697 132.651 42.5435C136.99 53.0173 138.678 64.3996 137.565 75.6816C136.452 86.9636 132.573 97.7969 126.271 107.221C119.969 116.646 111.44 124.37 101.438 129.71C91.4367 135.05 80.2722 137.84 68.9343 137.833ZM68.9343 2.03413C32.0338 2.03413 2.032 32.0424 2.032 68.9295C2.032 105.817 32.0434 135.825 68.9343 135.825C105.825 135.825 135.837 105.817 135.837 68.9295C135.837 32.0424 105.822 2.03413 68.9343 2.03413Z" fill="url(#paint0_linear_2206_255)"/>
<defs>
<linearGradient id="paint0_linear_2206_255" x1="128.623" y1="103.391" x2="9.25141" y2="34.4637" gradientUnits="userSpaceOnUse">
<stop offset="0.07" stop-color="#F8E1AB"/>
<stop offset="0.12" stop-color="#FFF3C5"/>
<stop offset="0.28" stop-color="#DCB272"/>
<stop offset="0.33" stop-color="#D3A263"/>
<stop offset="0.39" stop-color="#C7A44C"/>
<stop offset="0.66" stop-color="#EBDF91"/>
<stop offset="0.73" stop-color="#F2E4C4"/>
<stop offset="0.95" stop-color="#D0983F"/>
<stop offset="1" stop-color="#A2822E"/>
</linearGradient>
</defs>
</svg>
