<svg width="138" height="138" viewBox="0 0 138 138" fill="none" xmlns="http://www.w3.org/2000/svg">
<path d="M68.9345 130.027C102.782 130.027 130.221 102.59 130.221 68.746C130.221 34.9016 102.782 7.46533 68.9345 7.46533C35.0866 7.46533 7.64746 34.9016 7.64746 68.746C7.64746 102.59 35.0866 130.027 68.9345 130.027Z" fill="#FEF0EE" stroke="#272726" stroke-linecap="round" stroke-linejoin="round"/>
<path d="M68.9343 137.833C55.3016 137.842 41.9728 133.807 30.6351 126.237C19.2975 118.668 10.4608 107.905 5.24381 95.3117C0.0268364 82.718 -1.33587 68.8598 1.3282 55.4913C3.99228 42.1228 10.5633 29.8453 20.2095 20.213C28.2221 12.1921 38.0898 6.27159 48.9381 2.97607C59.7864 -0.319437 71.2803 -0.888128 82.401 1.32041C93.5216 3.52894 103.926 8.44649 112.691 15.6372C121.456 22.8279 128.312 32.0697 132.651 42.5435C136.99 53.0173 138.678 64.3996 137.565 75.6816C136.452 86.9636 132.573 97.7969 126.271 107.221C119.969 116.646 111.44 124.37 101.438 129.71C91.4367 135.05 80.2722 137.84 68.9343 137.833ZM68.9343 2.03413C32.0338 2.03413 2.032 32.0424 2.032 68.9295C2.032 105.817 32.0434 135.825 68.9343 135.825C105.825 135.825 135.837 105.817 135.837 68.9295C135.837 32.0424 105.825 2.03413 68.9343 2.03413Z" fill="url(#paint0_linear_2206_242)"/>
<path d="M62.623 113.379C62.623 113.312 61.9491 111.881 61.1277 110.171C58.673 105.066 57.7842 102.702 57.2098 99.9231C56.3049 95.4313 56.6772 90.4743 58.288 85.5815C60.8197 77.8973 66.1622 71.1436 74.4536 65.1054C76.2709 63.8511 77.9547 62.4137 79.4785 60.8157C81.2914 58.9966 82.315 57.771 84.6959 54.5593C85.4788 53.5038 85.9955 52.907 86.1848 52.8428C86.3741 52.7787 86.618 52.8428 87.0928 53.0289C88.2608 53.5647 89.0373 54.6331 89.3101 56.0801C89.4994 57.0908 89.3646 59.1955 89.0181 60.7516C87.972 65.3909 85.8735 68.2304 79.8892 73.1072C77.6046 74.9681 76.0901 76.4568 75.7916 77.1337C75.6444 77.5064 75.5473 77.897 75.5029 78.2952C75.4227 78.688 75.4925 79.0967 75.6986 79.4406C76.0644 80.1368 76.5425 80.3742 77.4249 80.3004C79.0774 80.1561 81.1246 78.8919 84.0734 76.184C89.5925 71.1212 92.6504 64.3129 94.3093 53.4043C94.4312 52.6054 94.7361 50.2954 94.9864 48.2709C95.5254 43.9331 95.7725 42.393 96.2217 40.545C97.2806 36.2072 99.1513 32.6266 101 31.3914C101.359 31.1248 101.77 30.9348 102.206 30.8331C102.678 30.7658 102.748 30.7658 102.979 31.0545C103.749 31.9507 104.134 35.3409 104.134 41.2252C104.134 53.2696 102.293 66.4112 99.5973 73.6301C95.7725 83.8714 89.4641 92.7908 82.1706 98.274C79.7865 100.067 78.2239 100.963 73.9659 102.981C71.4906 104.105 69.1994 105.597 67.1698 107.405C65.4531 108.98 63.8487 111.043 63.1043 112.648C62.7449 113.427 62.6165 113.61 62.6165 113.379H62.623ZM53.3754 88.3985C51.2255 84.0767 49.5634 81.7506 44.8209 76.4311C40.5243 71.6185 38.8975 69.44 37.4696 66.6262C36.6587 65.0581 36.0568 63.3905 35.6791 61.666C35.1337 59.234 35.0181 58.1367 35.0117 55.339C35.0117 52.4675 35.1304 51.3573 35.7273 48.9735C38.0215 39.8006 45.8252 32.9539 54.4984 32.5079C59.4896 32.2063 64.4105 33.8002 68.2768 36.9708L69.1335 37.6735L70.186 36.8521C72.6989 34.8863 75.6544 33.5646 78.795 33.002C80.5663 32.6812 84.2692 32.6491 85.8543 32.9346C88.6894 33.5297 91.3692 34.7099 93.7221 36.3997L94.2965 36.8136L94.0205 37.7761C93.4811 39.73 93.0526 41.7127 92.737 43.7149C92.6087 44.6036 92.4835 45.3993 92.4579 45.4795C92.4322 45.5597 92.1145 45.2325 91.7455 44.7416C90.5552 43.1833 89.0269 41.9152 87.2757 41.0327C85.8011 40.2632 84.1543 39.8833 82.4915 39.929C78.9619 39.929 76.1703 41.0968 73.6161 43.6539C73.1797 44.0871 71.9765 45.5052 70.9432 46.7918C69.91 48.0784 69.0501 49.1339 69.018 49.1339C68.9859 49.1339 68.1677 48.0784 67.1698 46.7918C63.8038 42.4348 61.8464 40.9011 58.5254 40.0252C57.6526 39.7974 57.2772 39.7621 55.5188 39.7621C53.616 39.7621 53.4588 39.7621 52.5603 40.083C47.6606 41.7161 44.0379 46.0185 42.8443 51.6333C42.4993 53.7311 42.441 55.866 42.671 57.9795C43.5117 64.3418 46.4124 68.6282 55.0728 76.306C56.4846 77.5572 57.7328 78.6674 57.8451 78.7732C58.0441 78.9593 58.0345 78.9882 57.659 79.7358C56.2536 82.5271 54.7006 87.1664 54.3893 89.499C54.3476 89.7941 54.2866 90.0444 54.2449 90.0444C53.9118 89.5165 53.6148 88.9666 53.3561 88.3985H53.3754Z" fill="#1C75BC" stroke="black" stroke-miterlimit="10"/>
<defs>
<linearGradient id="paint0_linear_2206_242" x1="128.623" y1="103.391" x2="9.25141" y2="34.4637" gradientUnits="userSpaceOnUse">
<stop offset="0.07" stop-color="#F8E1AB"/>
<stop offset="0.12" stop-color="#FFF3C5"/>
<stop offset="0.28" stop-color="#DCB272"/>
<stop offset="0.33" stop-color="#D3A263"/>
<stop offset="0.39" stop-color="#C7A44C"/>
<stop offset="0.66" stop-color="#EBDF91"/>
<stop offset="0.73" stop-color="#F2E4C4"/>
<stop offset="0.95" stop-color="#D0983F"/>
<stop offset="1" stop-color="#A2822E"/>
</linearGradient>
</defs>
</svg>
