<svg aria-hidden="true" style="position: absolute; width: 0; height: 0; overflow: hidden;" version="1.1" xmlns="http://www.w3.org/2000/svg" xmlns:xlink="http://www.w3.org/1999/xlink">
<defs>
<symbol id="icon-ico1" viewBox="0 0 32 32">
<path fill="#fef0ee" style="fill: var(--color2, #fef0ee)" d="M15.998 30.178c7.849 0 14.211-6.362 14.211-14.21s-6.363-14.21-14.211-14.21-14.211 6.362-14.211 14.21c0 7.848 6.363 14.21 14.211 14.21z"></path>
<path fill="#000" style="fill: var(--color4, #000)" d="M15.985 31.961c-3.161 0.002-6.252-0.934-8.881-2.689s-4.678-4.251-5.888-7.171c-1.21-2.92-1.526-6.134-0.908-9.234s2.141-5.947 4.378-8.18c1.858-1.86 4.146-3.233 6.662-3.997s5.181-0.896 7.759-0.384c2.579 0.512 4.991 1.652 7.024 3.32s3.622 3.81 4.628 6.239c1.006 2.429 1.398 5.068 1.139 7.684s-1.158 5.128-2.619 7.313c-1.461 2.186-3.439 3.977-5.758 5.215s-4.908 1.885-7.537 1.884zM15.985 0.472c-8.557 0-15.514 6.958-15.514 15.512s6.959 15.512 15.514 15.512c8.554 0 15.514-6.958 15.514-15.512s-6.959-15.512-15.514-15.512z"></path>
<path fill="#1c75bc" style="fill: var(--color5, #1c75bc)" d="M6.468 12.134c0 0 1.243-0.931 1.359-1.087 0.079-0.106 0.744-0.64 1.17-0.972 0.23-0.181 0.433-0.395 0.602-0.635l0.42-0.595c0.168-0.238 0.299-0.501 0.388-0.778l0.41-1.285 0.31-0.846c0.212-0.577 1.048-1.562 1.048-1.562s0.761-0.693 1.553-1.103c0.967-0.501 1.703-0.722 2.89-0.76s2.778 1.094 2.778 1.094c0 0 0.818 0.844 0.967 1.428s0.466 1.482 0.35 2.1c-0.116 0.618 0.466-0.507 0.466 0.812 0.002 0.793-0.062 1.585-0.191 2.367 0 0-0.194 2.057-0.233 2.445s0 2.873 0.583 3.571c0.583 0.699 0.039 1.669 2.213 2.95s5.59 0.388 5.59 0.388c0 0-0.621 2.678-2.096 4.39s-2.717 2.834-4.154 3.497c-1.437 0.663-2.446 0.699-2.446 0.699l-0.209 0.019-0.194 0.032-0.33 0.019-0.317-0.052c-0.018-0.002-0.035-0.009-0.050-0.019s-0.028-0.023-0.038-0.038c-0.010-0.016-0.015-0.033-0.018-0.051s-0-0.036 0.006-0.053l0.087-0.252 0.502-0.695 0.961-0.979 0.975-1.088c0.277-0.364 0.493-0.77 0.641-1.203 0.138-0.404 0.194-1.413 0-2.232s-1.318-1.909-1.318-1.909l-1.281-1.048-0.932-1.285 0.388-1.010 0.074-0.66-0.079-0.605c-0.012-0.091-0.042-0.178-0.089-0.257s-0.11-0.146-0.185-0.199l-0.423-0.298-0.818-0.427-0.744-0.372c-0.072-0.036-0.149-0.064-0.228-0.083l-0.041-0.010c-0.113-0.027-0.219-0.080-0.307-0.156l-0.582-0.5c-0.073-0.063-0.131-0.14-0.171-0.228s-0.061-0.182-0.061-0.278v-0.223c0-0.16 0.059-0.315 0.167-0.434l0.183-0.203 0.708 0.58c0.095 0.078 0.21 0.128 0.333 0.144l0.237 0.031c0.049 0.006 0.098 0 0.144-0.018s0.086-0.047 0.117-0.085l0.248-0.303 0.233-0.31 0.217-0.054c0.028-0.007 0.053-0.022 0.072-0.043s0.031-0.048 0.035-0.076l0.024-0.19c0-0.003 0.001-0.006 0.003-0.009s0.004-0.005 0.006-0.007c0.003-0.002 0.005-0.003 0.008-0.004s0.006-0.001 0.009 0l0.055 0.012c0.030 0.007 0.061 0.006 0.090-0.002s0.056-0.023 0.078-0.044c0.022-0.021 0.039-0.047 0.048-0.076s0.012-0.060 0.006-0.090l-0.049-0.278c-0.002-0.008-0.001-0.016 0.003-0.024s0.009-0.014 0.016-0.018c0.007-0.004 0.015-0.006 0.024-0.005s0.016 0.004 0.022 0.010l0.070 0.060c0.036 0.032 0.079 0.055 0.126 0.068s0.096 0.015 0.143 0.006l0.149-0.031c0.023-0.005 0.045-0.018 0.059-0.037s0.023-0.042 0.022-0.066l-0.034-1.071c-0.001-0.031 0.005-0.061 0.016-0.090l0.119-0.298c0.012-0.031 0.031-0.058 0.056-0.080l0.397-0.363c0.022-0.020 0.039-0.043 0.051-0.070l0.2-0.426c0.011-0.022 0.016-0.046 0.016-0.070s-0.007-0.048-0.019-0.070c-0.012-0.021-0.029-0.039-0.050-0.052s-0.044-0.021-0.069-0.023l-2.158-0.212-0.699 0.818c0 0-1.32 1.359-1.592 1.591s-2.252 1.242-2.252 1.242c0 0-1.164 0.388-1.824 0.818s-1.32 1.63-1.32 1.63l-0.967 1.669-1.39 2.201-1.281 2.717v0.427l0.854 1.048 1.86 2.135 1.556 1.362 1.592 1.010c0 0 0 0.388-1.397-0.35s-3.106-1.824-3.106-1.824-2.446-2.174-2.484-2.604c-0.039-0.43-0.854-1.281-1.243-2.753s0.272-3.553 0.272-3.553l0.854-1.804 1.24-1.44z"></path>
<path fill="#1c75bc" style="fill: var(--color5, #1c75bc)" d="M9.263 20.203l0.869-0.905c0.042-0.044 0.081-0.090 0.118-0.138l1.149-1.521 1.171 1.611c0.047 0.065 0.088 0.134 0.123 0.206l0.605 1.271c0.079 0.165 0.119 0.345 0.119 0.528v2.1c0 0.247-0.067 0.49-0.194 0.702l-0.504 0.841-1.625-1.689c-0.134-0.14-0.251-0.295-0.349-0.463l-1.481-2.544z"></path>
<path fill="#be1e2d" style="fill: var(--color6, #be1e2d)" d="M21.023 22.858c0-0.011 0-0.022 0-0.033-0.003-0.222-0.093-0.434-0.251-0.59s-0.37-0.245-0.593-0.246c-0.162 0.004-0.319 0.052-0.454 0.14s-0.244 0.212-0.313 0.358c-0.069-0.146-0.177-0.27-0.313-0.359s-0.293-0.137-0.455-0.14c-0.222 0.001-0.435 0.090-0.593 0.246s-0.248 0.368-0.251 0.59c0 0.011 0 0.022 0 0.033 0 0-0.048 0.532 0.545 1.116 0.339 0.328 0.695 0.638 1.066 0.929 0.371-0.291 0.727-0.601 1.066-0.929 0.592-0.584 0.545-1.116 0.545-1.116z"></path>
</symbol>
<symbol id="icon-ico-2" viewBox="0 0 32 32">
<path fill="#fef0ee" style="fill: var(--color2, #fef0ee)" d="M15.985 30.194c7.849 0 14.211-6.362 14.211-14.21s-6.363-14.21-14.211-14.21c-7.849 0-14.211 6.362-14.211 14.21s6.363 14.21 14.211 14.21z"></path>
<path fill="none" stroke="#272726" style="stroke: var(--color3, #272726)" stroke-linejoin="round" stroke-linecap="round" stroke-miterlimit="4" stroke-width="0.6957" d="M7.663 21.413c0 0-0.698-1.393-1.146-1.765s-0.249-0.893 0.573-0.772c0.822 0.121 1.943 1.591 2.491 2.26s1.171 0.722 1.171 0.722c2.018 0.298 2.61 0.442 3.715 2.186 1.42 2.245 0.346 3.291-1.142 3.193s-2.292-0.847-2.292-0.847-2.121-1.339-2.943-1.711c-0.822-0.372-2.641-4.185-3.064-5.208s-0.1-4.658 0.498-4.633c0.598 0.025 0.922 0.372 0.922 1.694-0.001 0.788 0.049 1.575 0.149 2.357"></path>
<path fill="none" stroke="#272726" style="stroke: var(--color3, #272726)" stroke-linejoin="round" stroke-linecap="round" stroke-miterlimit="4" stroke-width="0.6957" d="M24.307 21.413c0 0 0.699-1.393 1.146-1.765s0.249-0.893-0.573-0.772c-0.822 0.12-1.943 1.591-2.491 2.26s-1.171 0.722-1.171 0.722c-2.018 0.298-2.61 0.442-3.715 2.186-1.42 2.242-0.349 3.288 1.146 3.189s2.292-0.847 2.292-0.847c0 0 2.121-1.339 2.943-1.711s2.64-4.185 3.064-5.208 0.1-4.658-0.499-4.633c-0.598 0.025-0.921 0.376-0.921 1.697 0 0.788-0.049 1.575-0.149 2.357"></path>
<path fill="#000" style="fill: var(--color4, #000)" d="M15.985 31.961c-3.161 0.002-6.252-0.934-8.881-2.689s-4.678-4.251-5.888-7.171c-1.21-2.92-1.526-6.134-0.908-9.234s2.141-5.947 4.378-8.18c1.858-1.86 4.146-3.233 6.662-3.997s5.181-0.896 7.759-0.384c2.579 0.512 4.991 1.652 7.024 3.32s3.622 3.81 4.628 6.239c1.006 2.429 1.398 5.068 1.139 7.684s-1.158 5.128-2.619 7.313c-1.461 2.186-3.439 3.977-5.758 5.215s-4.908 1.885-7.537 1.884zM15.985 0.472c-8.557 0-15.514 6.958-15.514 15.512s6.959 15.512 15.514 15.512c8.554 0 15.514-6.958 15.514-15.512s-6.959-15.512-15.514-15.512z"></path>
<path fill="#1c75bc" style="fill: var(--color5, #1c75bc)" d="M8.945 10.882c0 0 0.865-0.649 0.946-0.757 0.055-0.074 0.521-0.446 0.814-0.677 0.16-0.126 0.301-0.275 0.419-0.442l0.292-0.414c0.117-0.166 0.208-0.348 0.269-0.542l0.285-0.893 0.216-0.588c0.149-0.402 0.73-1.089 0.73-1.089 0.33-0.296 0.691-0.554 1.078-0.769 0.674-0.349 1.186-0.502 2.009-0.529s1.935 0.762 1.935 0.762c0 0 0.568 0.587 0.676 0.993s0.324 1.032 0.243 1.462c-0.081 0.43 0.324-0.353 0.324 0.565 0.003 0.552-0.040 1.103-0.127 1.648 0 0-0.135 1.432-0.162 1.702s0 1.999 0.406 2.486c0.405 0.487 0.027 1.162 1.54 2.053s3.891 0.27 3.891 0.27c0 0-0.432 1.864-1.459 3.050s-1.891 1.972-2.891 2.432-1.702 0.487-1.702 0.487l-0.149 0.013-0.135 0.022-0.23 0.013-0.223-0.036c-0.013-0.002-0.025-0.006-0.035-0.013s-0.020-0.016-0.026-0.027c-0.007-0.011-0.011-0.023-0.012-0.035s0-0.025 0.004-0.037l0.060-0.176 0.35-0.484 0.67-0.681 0.679-0.757c0.193-0.253 0.344-0.536 0.446-0.838 0.096-0.281 0.135-0.987 0-1.553s-0.917-1.329-0.917-1.329l-0.893-0.73-0.647-0.893 0.27-0.702 0.054-0.459-0.055-0.421c-0.008-0.063-0.029-0.124-0.062-0.179s-0.077-0.102-0.129-0.138l-0.294-0.208-0.568-0.298-0.521-0.259c-0.050-0.025-0.104-0.045-0.159-0.057l-0.028-0.007c-0.079-0.019-0.153-0.056-0.214-0.109l-0.405-0.348c-0.051-0.044-0.091-0.098-0.119-0.158s-0.042-0.127-0.042-0.194v-0.147c-0-0.112 0.041-0.219 0.116-0.302l0.127-0.141 0.493 0.403c0.066 0.054 0.146 0.089 0.231 0.1l0.164 0.022c0.034 0.004 0.069-0.001 0.1-0.014s0.060-0.034 0.081-0.061l0.173-0.211 0.162-0.216 0.149-0.038c0.019-0.005 0.037-0.015 0.050-0.030s0.022-0.034 0.024-0.053l0.016-0.132c0-0.002 0.001-0.004 0.002-0.006s0.003-0.003 0.004-0.005c0.002-0.001 0.004-0.002 0.006-0.002s0.004-0 0.006 0l0.038 0.008c0.021 0.005 0.042 0.004 0.063-0.002s0.039-0.016 0.055-0.031c0.015-0.015 0.027-0.033 0.033-0.053s0.008-0.042 0.004-0.063l-0.034-0.193c-0.001-0.005 0-0.011 0.003-0.016s0.006-0.009 0.011-0.012c0.005-0.003 0.010-0.004 0.016-0.003s0.011 0.003 0.015 0.006l0.049 0.042c0.026 0.022 0.056 0.037 0.088 0.046s0.066 0.010 0.099 0.003l0.106-0.021c0.017-0.003 0.032-0.013 0.043-0.026s0.015-0.031 0.014-0.048l-0.024-0.744c-0.001-0.021 0.003-0.043 0.011-0.063l0.083-0.208c0.008-0.021 0.022-0.040 0.039-0.056l0.276-0.253c0.015-0.014 0.027-0.030 0.036-0.048l0.14-0.298c0.007-0.015 0.010-0.032 0.010-0.049s-0.005-0.033-0.014-0.048c-0.008-0.015-0.020-0.027-0.034-0.036s-0.030-0.015-0.047-0.016l-1.5-0.149-0.487 0.568c0 0-0.919 0.946-1.108 1.108s-1.567 0.864-1.567 0.864c0 0-0.811 0.27-1.27 0.568s-0.919 1.135-0.919 1.135l-0.676 1.162-0.973 1.54-0.893 1.891v0.298l0.595 0.73 1.297 1.488 1.081 0.946 1.115 0.705c0 0 0 0.27-0.972-0.243s-2.161-1.27-2.161-1.27c0 0-1.702-1.513-1.731-1.81s-0.595-0.893-0.865-1.919c-0.269-1.026 0.189-2.472 0.189-2.472l0.595-1.256 0.863-1.002z"></path>
<path fill="#1c75bc" style="fill: var(--color5, #1c75bc)" d="M10.89 16.498l0.605-0.63c0.029-0.030 0.056-0.062 0.082-0.096l0.8-1.057 0.818 1.121c0.033 0.045 0.062 0.093 0.086 0.144l0.416 0.885c0.055 0.115 0.083 0.24 0.083 0.367v1.462c-0 0.172-0.047 0.341-0.135 0.489l-0.351 0.585-1.129-1.177c-0.094-0.097-0.175-0.206-0.243-0.322l-1.031-1.77z"></path>
<path fill="#be1e2d" style="fill: var(--color6, #be1e2d)" d="M19.076 18.346c0-0.007 0-0.016 0-0.023-0.002-0.155-0.065-0.302-0.175-0.411s-0.258-0.17-0.413-0.171c-0.113 0.002-0.222 0.036-0.317 0.098s-0.17 0.148-0.218 0.25c-0.048-0.102-0.123-0.188-0.218-0.25s-0.204-0.095-0.317-0.098c-0.154 0.002-0.302 0.064-0.411 0.172s-0.173 0.255-0.176 0.41c0 0.007 0 0.016 0 0.023 0 0-0.033 0.372 0.379 0.774 0.237 0.228 0.485 0.444 0.744 0.647 0.259-0.202 0.507-0.418 0.744-0.647 0.41-0.404 0.377-0.774 0.377-0.774z"></path>
</symbol>
<symbol id="icon-ico3" viewBox="0 0 32 32">
<path fill="#fef0ee" style="fill: var(--color2, #fef0ee)" d="M15.985 30.151c7.849 0 14.211-6.362 14.211-14.21s-6.363-14.21-14.211-14.21c-7.849 0-14.211 6.362-14.211 14.21s6.363 14.21 14.211 14.21z"></path>
<path fill="#be1e2d" style="fill: var(--color6, #be1e2d); stroke: var(--color3, #272726)" stroke="#272726" stroke-linejoin="round" stroke-linecap="round" stroke-miterlimit="4" stroke-width="0.6957" d="M22.006 11.516c0-0.042 0-0.083 0-0.124 0-1.675-1.414-3.125-3.156-3.125-1.274 0-2.371 0.818-2.869 1.865-0.499-1.048-1.593-1.867-2.867-1.867-1.743 0-3.156 1.451-3.156 3.125 0 0.042 0 0.083 0 0.124 0 0-0.178 1.989 2.037 4.162 1.007 1.009 2.132 1.967 3.986 3.474 1.853-1.507 2.976-2.465 3.986-3.474 2.217-2.171 2.039-4.16 2.039-4.16z"></path>
<path fill="none" stroke="#272726" style="stroke: var(--color3, #272726)" stroke-linejoin="round" stroke-linecap="round" stroke-miterlimit="4" stroke-width="0.6957" d="M7.662 19.479c0 0-0.698-1.393-1.146-1.765s-0.249-0.893 0.573-0.772c0.822 0.121 1.943 1.591 2.491 2.26s1.171 0.722 1.171 0.722c2.018 0.298 2.61 0.442 3.715 2.186 1.42 2.244 0.346 3.291-1.142 3.192s-2.292-0.847-2.292-0.847c0 0-2.121-1.339-2.943-1.711s-2.641-4.185-3.064-5.208c-0.423-1.023-0.1-4.658 0.498-4.633s0.922 0.372 0.922 1.694c-0.001 0.788 0.049 1.575 0.149 2.357"></path>
<path fill="none" stroke="#272726" style="stroke: var(--color3, #272726)" stroke-linejoin="round" stroke-linecap="round" stroke-miterlimit="4" stroke-width="0.6957" d="M24.307 19.479c0 0 0.699-1.393 1.146-1.765s0.249-0.893-0.573-0.772c-0.822 0.121-1.944 1.591-2.491 2.26s-1.171 0.722-1.171 0.722c-2.018 0.298-2.61 0.442-3.715 2.186-1.42 2.242-0.349 3.288 1.146 3.189s2.292-0.847 2.292-0.847c0 0 2.121-1.339 2.943-1.711s2.641-4.185 3.064-5.208c0.423-1.023 0.1-4.658-0.499-4.633s-0.921 0.376-0.921 1.697c0.001 0.788-0.049 1.575-0.149 2.357"></path>
<path fill="#000" style="fill: var(--color4, #000)" d="M15.985 31.961c-3.161 0.002-6.252-0.934-8.881-2.689s-4.678-4.251-5.888-7.171c-1.21-2.92-1.526-6.134-0.908-9.234s2.141-5.947 4.378-8.18c1.858-1.86 4.146-3.233 6.662-3.997s5.181-0.896 7.759-0.384c2.579 0.512 4.991 1.652 7.024 3.32s3.622 3.81 4.628 6.239c1.006 2.429 1.398 5.068 1.139 7.684s-1.158 5.128-2.619 7.313c-1.461 2.186-3.439 3.977-5.758 5.215s-4.908 1.885-7.537 1.884zM15.985 0.472c-8.557 0-15.514 6.958-15.514 15.512s6.959 15.512 15.514 15.512c8.554 0 15.514-6.958 15.514-15.512s-6.96-15.512-15.514-15.512z"></path>
</symbol>
<symbol id="icon-ico4" viewBox="0 0 32 32">
<path fill="#fef0ee" style="fill: var(--color2, #fef0ee)" d="M15.995 30.155c7.854 0 14.22-6.366 14.22-14.219s-6.367-14.219-14.22-14.219c-7.854 0-14.22 6.366-14.22 14.219s6.367 14.219 14.22 14.219z"></path>
<path fill="#000" style="fill: var(--color4, #000)" d="M15.995 31.967c-3.163 0.002-6.256-0.934-8.886-2.691s-4.681-4.254-5.891-7.176c-1.21-2.922-1.527-6.138-0.909-9.239s2.143-5.951 4.381-8.186c1.669-1.667 3.686-2.943 5.906-3.739s4.589-1.090 6.937-0.862c2.348 0.228 4.616 0.972 6.642 2.18s3.76 2.848 5.077 4.804c1.317 1.956 2.185 4.18 2.542 6.511s0.193 4.712-0.479 6.973c-0.672 2.261-1.836 4.345-3.408 6.102s-3.514 3.146-5.687 4.065c-1.969 0.834-4.085 1.261-6.223 1.257zM15.995 0.458c-8.562 0-15.523 6.963-15.523 15.522s6.963 15.522 15.523 15.522 15.523-6.963 15.523-15.522c0-8.559-6.963-15.522-15.523-15.522z"></path>
<path fill="#000" style="fill: var(--color4, #000)" d="M4.2 4.421h14.867v14.865h-14.867v-14.865z"></path>
<path fill="#000" style="fill: var(--color4, #000)" d="M13.132 10.349h14.485v14.484h-14.485v-14.484z"></path>
</symbol>
<symbol id="icon-ico5" viewBox="0 0 32 32">
<path fill="#fef0ee" style="fill: var(--color2, #fef0ee)" d="M15.985 30.151c7.849 0 14.211-6.362 14.211-14.21s-6.363-14.21-14.211-14.21c-7.849 0-14.211 6.362-14.211 14.21s6.363 14.21 14.211 14.21z"></path>
<path fill="#000" style="fill: var(--color4, #000)" d="M15.985 31.961c-3.161 0.002-6.252-0.934-8.881-2.689s-4.678-4.251-5.888-7.171c-1.21-2.92-1.526-6.134-0.908-9.234s2.141-5.947 4.378-8.18c1.858-1.86 4.146-3.233 6.662-3.997s5.181-0.896 7.759-0.384c2.579 0.512 4.991 1.652 7.024 3.32s3.622 3.81 4.628 6.239c1.006 2.429 1.398 5.068 1.139 7.684s-1.158 5.128-2.619 7.313c-1.461 2.186-3.439 3.977-5.758 5.215s-4.908 1.885-7.537 1.884zM15.985 0.472c-8.557 0-15.514 6.958-15.514 15.512s6.959 15.512 15.514 15.512c8.554 0 15.514-6.958 15.514-15.512s-6.959-15.512-15.514-15.512z"></path>
<path fill="#1c75bc" style="fill: var(--color5, #1c75bc)" d="M14.521 26.291c0-0.016-0.156-0.347-0.347-0.744-0.569-1.184-0.775-1.732-0.909-2.376-0.21-1.042-0.123-2.191 0.25-3.326 0.587-1.782 1.826-3.348 3.749-4.748 0.421-0.291 0.812-0.624 1.165-0.995 0.42-0.422 0.658-0.706 1.21-1.451 0.182-0.245 0.301-0.383 0.345-0.398s0.1 0 0.211 0.043c0.271 0.124 0.451 0.372 0.514 0.708 0.044 0.234 0.013 0.722-0.068 1.083-0.243 1.076-0.729 1.734-2.117 2.865-0.53 0.431-0.881 0.777-0.95 0.934-0.034 0.086-0.057 0.177-0.067 0.269-0.019 0.091-0.002 0.186 0.045 0.266 0.085 0.161 0.196 0.216 0.4 0.199 0.383-0.033 0.858-0.327 1.542-0.955 1.28-1.174 1.989-2.753 2.374-5.282 0.028-0.185 0.099-0.721 0.157-1.19 0.125-1.006 0.182-1.363 0.286-1.791 0.246-1.006 0.679-1.836 1.108-2.123 0.083-0.062 0.179-0.106 0.28-0.129 0.109-0.016 0.126-0.016 0.179 0.051 0.179 0.208 0.268 0.994 0.268 2.358 0 2.793-0.427 5.84-1.052 7.514-0.887 2.375-2.35 4.443-4.041 5.715-0.553 0.416-0.915 0.624-1.903 1.091-0.574 0.261-1.105 0.607-1.576 1.026-0.398 0.365-0.77 0.844-0.943 1.216-0.083 0.181-0.113 0.223-0.113 0.169h0.002zM12.377 20.498c-0.499-1.002-0.884-1.542-1.984-2.775-0.996-1.116-1.374-1.621-1.705-2.274-0.188-0.364-0.328-0.75-0.415-1.15-0.126-0.564-0.153-0.818-0.155-1.467 0-0.666 0.028-0.923 0.166-1.476 0.532-2.127 2.342-3.715 4.353-3.818 1.157-0.070 2.298 0.3 3.195 1.035l0.199 0.163 0.244-0.19c0.583-0.456 1.268-0.762 1.996-0.893 0.411-0.074 1.269-0.082 1.637-0.016 0.657 0.138 1.279 0.412 1.824 0.804l0.133 0.096-0.064 0.223c-0.125 0.453-0.224 0.913-0.298 1.377-0.030 0.206-0.059 0.391-0.065 0.409s-0.080-0.057-0.165-0.171c-0.276-0.361-0.63-0.655-1.036-0.86-0.342-0.178-0.724-0.267-1.109-0.256-0.818 0-1.466 0.271-2.058 0.864-0.101 0.1-0.38 0.429-0.62 0.728s-0.439 0.543-0.446 0.543c-0.007 0-0.197-0.245-0.429-0.543-0.781-1.010-1.234-1.366-2.005-1.569-0.202-0.053-0.289-0.061-0.697-0.061-0.441 0-0.478 0-0.686 0.074-1.136 0.379-1.976 1.376-2.253 2.678-0.080 0.486-0.094 0.982-0.040 1.472 0.195 1.475 0.868 2.469 2.876 4.25 0.327 0.29 0.617 0.548 0.643 0.572 0.046 0.043 0.044 0.050-0.043 0.223-0.326 0.647-0.686 1.723-0.758 2.264-0.010 0.068-0.024 0.126-0.033 0.126-0.077-0.122-0.146-0.25-0.206-0.382h0.004z"></path>
</symbol>
<symbol id="icon-ico6" viewBox="0 0 32 32">
<path fill="#fef0ee" style="fill: var(--color2, #fef0ee)" d="M15.995 30.155c7.854 0 14.22-6.366 14.22-14.219s-6.367-14.219-14.22-14.219c-7.854 0-14.22 6.366-14.22 14.219s6.367 14.219 14.22 14.219z"></path>
<path fill="#000" style="fill: var(--color4, #000)" d="M15.995 31.967c-3.163 0.002-6.256-0.934-8.886-2.691s-4.681-4.254-5.891-7.176c-1.21-2.922-1.527-6.138-0.909-9.239s2.143-5.951 4.381-8.186c1.669-1.667 3.686-2.943 5.906-3.739s4.589-1.090 6.937-0.862c2.348 0.228 4.616 0.972 6.642 2.18s3.76 2.848 5.077 4.804c1.317 1.956 2.185 4.18 2.542 6.511s0.193 4.712-0.479 6.973c-0.672 2.261-1.836 4.345-3.408 6.102s-3.514 3.146-5.687 4.065c-1.969 0.833-4.086 1.261-6.223 1.257zM15.995 0.457c-8.562 0-15.523 6.963-15.523 15.522s6.963 15.522 15.523 15.522 15.523-6.963 15.523-15.521c0-8.559-6.963-15.522-15.523-15.522z"></path>
<path fill="#000" style="fill: var(--color4, #000)" d="M6.902 4.787h18.678v18.677h-18.678v-18.677z"></path>
<path fill="#000" style="fill: var(--color4, #000)" d="M12.349 18.546h8.005v8.004h-8.005v-8.004z"></path>
</symbol>
<symbol id="icon-facebook" viewBox="0 0 32 32">
<path d="M26.685 1.55h-21.64c-1.124 0-2.203 0.447-2.997 1.242s-1.242 1.873-1.242 2.997v21.64c0 1.124 0.447 2.203 1.242 2.997s1.873 1.242 2.997 1.242h9.848v-10.993h-3.723v-4.288h3.723v-3.159c0-1.79 0.495-3.181 1.485-4.169 0.99-0.99 2.332-1.487 4.028-1.487 1.698 0 2.797 0.066 3.3 0.19v3.817h-2.263c-0.817 0-1.374 0.173-1.673 0.52-0.297 0.344-0.446 0.864-0.446 1.555v2.733h4.241l-0.565 4.288h-3.676v10.993h7.36c1.124 0 2.203-0.447 2.997-1.242s1.242-1.873 1.242-2.997v-21.64c0-1.124-0.447-2.203-1.242-2.997s-1.873-1.242-2.997-1.242z"></path>
</symbol>
<symbol id="icon-instagram" viewBox="0 0 32 32">
<path d="M31.563 16.063c0 2.175-0.044 4.356 0.012 6.531 0.094 3.85-2.325 6.825-5.406 8.15-1.238 0.531-2.538 0.813-3.881 0.813-4.206 0.006-8.419 0.063-12.625-0.019-3.169-0.063-5.775-1.387-7.644-4-0.981-1.375-1.45-2.938-1.45-4.631 0-4.481 0-8.956 0-13.438 0-3.656 1.781-6.213 4.944-7.875 1.375-0.719 2.869-1.025 4.425-1.031 4.081 0 8.169-0.025 12.25 0.012 3.169 0.025 5.813 1.238 7.762 3.787 1.087 1.425 1.613 3.063 1.613 4.862 0 2.275 0 4.556 0 6.838zM2.875 16.063c0 2.294 0 4.581 0 6.875 0 1.025 0.237 1.988 0.769 2.856 1.394 2.281 3.5 3.394 6.112 3.438 4.194 0.063 8.394 0.025 12.594 0.012 1.031 0 2.031-0.212 2.962-0.656 2.538-1.212 3.956-3.144 3.944-6.044-0.025-4.438-0.006-8.875-0.006-13.313 0-1.256-0.356-2.406-1.1-3.419-1.438-1.944-3.425-2.9-5.8-2.925-4.188-0.050-8.375-0.019-12.563-0.013-0.894 0-1.756 0.181-2.594 0.494-2.3 0.856-4.438 3.025-4.338 6.219 0.075 2.162 0.019 4.319 0.019 6.475z"></path>
<path d="M16.1 22.688c-4.031 0-7.281-3.212-7.287-7.213-0.006-3.938 3.269-7.162 7.275-7.162 4.019-0.006 7.281 3.213 7.287 7.181 0 3.963-3.256 7.187-7.275 7.194zM16.1 20.375c2.744 0 4.969-2.194 4.962-4.894-0.006-2.675-2.231-4.863-4.962-4.863-2.744 0-4.981 2.181-4.981 4.875 0.006 2.7 2.238 4.887 4.981 4.881z"></path>
<path d="M24.219 6.125c0.844 0 1.531 0.719 1.531 1.6-0.006 0.881-0.7 1.594-1.544 1.588-0.831-0.006-1.512-0.719-1.512-1.581-0.006-0.881 0.681-1.606 1.525-1.606z"></path>
</symbol>
<symbol id="icon-viber" viewBox="0 0 32 32">
<path d="M15.198 0.005c-2.568 0.031-8.089 0.453-11.177 3.286-2.297 2.276-3.099 5.641-3.193 9.802-0.078 4.146-0.172 11.932 7.333 14.052v3.229c0 0-0.047 1.292 0.807 1.557 1.052 0.333 1.651-0.661 2.651-1.729l1.865-2.109c5.135 0.427 9.068-0.557 9.521-0.703 1.042-0.333 6.911-1.083 7.87-8.87 0.984-8.042-0.479-13.109-3.12-15.401h-0.016c-0.797-0.734-4-3.068-11.156-3.094 0 0-0.531-0.036-1.385-0.021zM15.286 2.266c0.729-0.005 1.172 0.026 1.172 0.026 6.057 0.016 8.948 1.839 9.63 2.453 2.224 1.906 3.37 6.474 2.531 13.188-0.797 6.51-5.557 6.922-6.438 7.203-0.375 0.12-3.839 0.974-8.203 0.693 0 0-3.25 3.922-4.266 4.932-0.161 0.177-0.349 0.229-0.469 0.203-0.172-0.042-0.224-0.255-0.214-0.547l0.031-5.359c-6.365-1.76-5.99-8.401-5.922-11.87 0.078-3.469 0.729-6.307 2.667-8.229 2.609-2.359 7.297-2.677 9.479-2.693zM15.766 5.734c-0.219-0.005-0.401 0.177-0.401 0.396 0 0.224 0.182 0.401 0.401 0.401 2.005-0.036 3.938 0.724 5.375 2.12 1.453 1.411 2.161 3.307 2.188 5.786 0 0.219 0.177 0.401 0.401 0.401v-0.016c0.219 0 0.401-0.177 0.401-0.396 0.099-2.359-0.776-4.651-2.417-6.349-1.583-1.547-3.589-2.344-5.948-2.344zM10.495 6.651c-0.281-0.042-0.573 0.016-0.818 0.161h-0.021c-0.542 0.318-1.047 0.719-1.526 1.255-0.365 0.422-0.563 0.849-0.615 1.26-0.031 0.245-0.010 0.49 0.063 0.724l0.026 0.016c0.411 1.208 0.948 2.37 1.604 3.464 0.844 1.536 1.885 2.958 3.094 4.229l0.036 0.052 0.057 0.042 0.036 0.042 0.042 0.036c1.276 1.214 2.698 2.255 4.24 3.109 1.76 0.958 2.828 1.411 3.469 1.599v0.010c0.188 0.057 0.359 0.083 0.531 0.083 0.547-0.042 1.063-0.26 1.469-0.63 0.521-0.469 0.932-0.984 1.24-1.531v-0.010c0.307-0.578 0.203-1.125-0.24-1.495-0.885-0.776-1.849-1.464-2.865-2.057-0.682-0.37-1.375-0.146-1.656 0.229l-0.599 0.755c-0.307 0.375-0.865 0.323-0.865 0.323l-0.016 0.010c-4.161-1.063-5.271-5.276-5.271-5.276s-0.052-0.573 0.333-0.865l0.75-0.604c0.359-0.292 0.609-0.984 0.224-1.667-0.589-1.021-1.276-1.979-2.052-2.865-0.167-0.208-0.406-0.349-0.672-0.401zM16.458 7.839c-0.531 0-0.531 0.802 0.005 0.802 1.333 0.021 2.604 0.573 3.531 1.531 0.844 0.932 1.281 2.172 1.198 3.427 0.005 0.219 0.182 0.396 0.401 0.396l0.016 0.021c0.219 0 0.401-0.182 0.401-0.401 0.036-1.589-0.458-2.922-1.427-3.99-0.974-1.068-2.333-1.667-4.068-1.786-0.021 0-0.036 0-0.057 0zM17.115 9.995c-0.547-0.016-0.568 0.802-0.026 0.818 1.318 0.068 1.958 0.734 2.042 2.104 0.005 0.219 0.182 0.391 0.396 0.391h0.016c0.224-0.010 0.401-0.203 0.385-0.427-0.094-1.786-1.068-2.792-2.797-2.885-0.005 0-0.010 0-0.016 0z"></path>
</symbol>
<symbol id="icon-telegram" viewBox="0 0 32 32">
<path d="M29.402 2.839l-28.351 10.989c-1.141 0.512-1.527 1.537-0.276 2.093l7.273 2.323 17.585-10.924c0.96-0.686 1.943-0.503 1.097 0.251l-15.104 13.746-0.474 5.817c0.439 0.898 1.244 0.902 1.757 0.456l4.179-3.974 7.157 5.387c1.662 0.989 2.567 0.351 2.924-1.462l4.694-22.342c0.487-2.232-0.344-3.215-2.462-2.36z"></path>
</symbol>
<symbol id="icon-telegram" viewBox="0 0 32 32">
<path d="M29.402 2.839l-28.351 10.989c-1.141 0.512-1.527 1.537-0.276 2.093l7.273 2.323 17.585-10.924c0.96-0.686 1.943-0.503 1.097 0.251l-15.104 13.746-0.474 5.817c0.439 0.898 1.244 0.902 1.757 0.456l4.179-3.974 7.157 5.387c1.662 0.989 2.567 0.351 2.924-1.462l4.694-22.342c0.487-2.232-0.344-3.215-2.462-2.36z"></path>
</symbol>
<symbol id="menu_burger_icon" viewBox="0 0 32 32">
<path d="M2.857 9.714h26.286c1.578 0 2.857-1.279 2.857-2.857s-1.279-2.857-2.857-2.857h-26.286c-1.578 0-2.857 1.279-2.857 2.857s1.279 2.857 2.857 2.857zM29.143 13.143h-26.286c-1.578 0-2.857 1.279-2.857 2.857s1.279 2.857 2.857 2.857h26.286c1.578 0 2.857-1.279 2.857-2.857s-1.279-2.857-2.857-2.857zM29.143 22.286h-26.286c-1.578 0-2.857 1.279-2.857 2.857s1.279 2.857 2.857 2.857h26.286c1.578 0 2.857-1.279 2.857-2.857s-1.279-2.857-2.857-2.857z"></path>
</symbol>
<symbol id="mobile-icon-close" viewBox="0 0 32 32">
<path d="M6.1 6.1c0.362-0.362 0.862-0.586 1.414-0.586s1.052 0.224 1.414 0.586l7.072 7.072 7.072-7.072c0.359-0.347 0.849-0.561 1.389-0.561 1.105 0 2 0.895 2 2 0 0.54-0.214 1.030-0.562 1.39l0.001-0.001-7.072 7.072 7.072 7.072c0.347 0.359 0.561 0.849 0.561 1.389 0 1.105-0.895 2-2 2-0.54 0-1.030-0.214-1.39-0.562l0.001 0.001-7.072-7.072-7.072 7.072c-0.359 0.347-0.849 0.561-1.389 0.561-1.105 0-2-0.895-2-2 0-0.54 0.214-1.030 0.562-1.39l-0.001 0.001 7.072-7.072-7.072-7.072c-0.362-0.362-0.586-0.862-0.586-1.414s0.224-1.052 0.586-1.414v0z"></path>
</symbol>
<symbol id="icon-up-arrow" viewBox="0 0 32 32">
<path d="M6 18.8l10-10 10 10-2.8 2.8-7.2-7.2-7.2 7.2z"></path>
<path d="M30 16c0 7.8-6.2 14-14 14s-14-6.2-14-14 6.2-14 14-14 14 6.2 14 14zM32 16c0-8.8-7.2-16-16-16s-16 7.2-16 16 7.2 16 16 16 16-7.2 16-16v0z"></path>
</symbol>
</defs>
</svg>
