<svg xmlns="http://www.w3.org/2000/svg" xmlns:xlink="http://www.w3.org/1999/xlink" viewBox="0 0 429.5 429.5"><defs><style>.cls-1{fill:#fef0ee;stroke:#272726;stroke-linecap:round;stroke-linejoin:round;}.cls-2{fill:url(#linear-gradient);}.cls-3{fill:#1c75bc;stroke:#000;stroke-miterlimit:10;}</style><linearGradient id="linear-gradient" x1="1330.7" y1="279.61" x2="1702.74" y2="64.81" gradientTransform="matrix(-1, 0, 0, 1, 1731.47, 42.54)" gradientUnits="userSpaceOnUse"><stop offset="0.07" stop-color="#f8e1ab"/><stop offset="0.12" stop-color="#fff3c5"/><stop offset="0.28" stop-color="#dcb272"/><stop offset="0.33" stop-color="#d3a263"/><stop offset="0.39" stop-color="#c7a44c"/><stop offset="0.66" stop-color="#ebdf91"/><stop offset="0.73" stop-color="#f2e4c4"/><stop offset="0.95" stop-color="#d0983f"/><stop offset="1" stop-color="#a2822e"/></linearGradient></defs><g id="Layer_2" data-name="Layer 2"><g id="Layer_1-2" data-name="Layer 1"><circle class="cls-1" cx="214.75" cy="214.17" r="191"/><path class="cls-2" d="M214.75,429.5A214.69,214.69,0,0,1,62.9,62.9,214.8,214.8,0,1,1,214.75,429.5Zm0-423.26c-115,0-208.5,93.53-208.5,208.5s93.53,208.5,208.5,208.5,208.5-93.53,208.5-208.5S329.72,6.24,214.75,6.24Z"/><path class="cls-3" d="M195.08,353.28c0-.21-2.1-4.67-4.66-10C182.77,327.37,180,320,178.21,311.34c-2.82-14-1.66-29.45,3.36-44.7,7.89-23.95,24.54-45,50.38-63.82a100.6,100.6,0,0,0,15.66-13.37c5.65-5.67,8.84-9.49,16.26-19.5,2.44-3.29,4.05-5.15,4.64-5.35s1.35,0,2.83.58c3.64,1.67,6.06,5,6.91,9.51.59,3.15.17,9.71-.91,14.56-3.26,14.46-9.8,23.31-28.45,38.51-7.12,5.8-11.84,10.44-12.77,12.55a14.12,14.12,0,0,0-.9,3.62,5,5,0,0,0,.61,3.57c1.14,2.17,2.63,2.91,5.38,2.68,5.15-.45,11.53-4.39,20.72-12.83,17.2-15.78,26.73-37,31.9-71,.38-2.49,1.33-9.69,2.11-16,1.68-13.52,2.45-18.32,3.85-24.08,3.3-13.52,9.13-24.68,14.89-28.53A10.21,10.21,0,0,1,318.44,96c1.47-.21,1.69-.21,2.41.69q3.6,4.19,3.6,31.7c0,37.54-5.74,78.5-14.14,101-11.92,31.92-31.58,59.72-54.31,76.81-7.43,5.59-12.3,8.38-25.57,14.67a84.12,84.12,0,0,0-21.18,13.79C203.9,339.57,198.9,346,196.58,351c-1.12,2.43-1.52,3-1.52,2.28Zm-28.82-77.86c-6.7-13.47-11.88-20.72-26.66-37.3-13.39-15-18.46-21.79-22.91-30.56a63,63,0,0,1-5.58-15.46c-1.7-7.58-2.06-11-2.08-19.72,0-8.95.37-12.41,2.23-19.84,7.15-28.59,31.47-49.93,58.5-51.32a61.83,61.83,0,0,1,42.94,13.91l2.67,2.19,3.28-2.56a61,61,0,0,1,26.83-12c5.52-1,17.06-1.1,22-.21A64.88,64.88,0,0,1,292,113.35l1.79,1.29-.86,3a167.64,167.64,0,0,0-4,18.51c-.4,2.77-.79,5.25-.87,5.5s-1.07-.77-2.22-2.3a40.42,40.42,0,0,0-13.93-11.56A30.42,30.42,0,0,0,257,124.35c-11,0-19.7,3.64-27.66,11.61-1.36,1.35-5.11,5.77-8.33,9.78s-5.9,7.3-6,7.3-2.65-3.29-5.76-7.3c-10.49-13.58-16.59-18.36-26.94-21.09-2.72-.71-3.89-.82-9.37-.82-5.93,0-6.42,0-9.22,1-15.27,5.09-26.56,18.5-30.28,36a73.15,73.15,0,0,0-.54,19.78c2.62,19.83,11.66,33.19,38.65,57.12,4.4,3.9,8.29,7.36,8.64,7.69.62.58.59.67-.58,3-4.38,8.7-9.22,23.16-10.19,30.43-.13.92-.32,1.7-.45,1.7a43,43,0,0,1-2.77-5.13Z"/></g></g></svg>