<svg xmlns="http://www.w3.org/2000/svg" xmlns:xlink="http://www.w3.org/1999/xlink" viewBox="0 0 429.5 429.5"><defs><style>.cls-1{fill:#fef0ee;}.cls-1,.cls-4{stroke:#272726;stroke-linecap:round;stroke-linejoin:round;}.cls-2{fill:url(#linear-gradient);}.cls-3{fill:#1c75bc;stroke:#000;stroke-miterlimit:10;}.cls-4{fill:#be1e2d;}</style><linearGradient id="linear-gradient" x1="1729.86" y1="279.61" x2="2101.9" y2="64.81" gradientTransform="matrix(-1, 0, 0, 1, 2130.63, 42.54)" gradientUnits="userSpaceOnUse"><stop offset="0.07" stop-color="#f8e1ab"/><stop offset="0.12" stop-color="#fff3c5"/><stop offset="0.28" stop-color="#dcb272"/><stop offset="0.33" stop-color="#d3a263"/><stop offset="0.39" stop-color="#c7a44c"/><stop offset="0.66" stop-color="#ebdf91"/><stop offset="0.73" stop-color="#f2e4c4"/><stop offset="0.95" stop-color="#d0983f"/><stop offset="1" stop-color="#a2822e"/></linearGradient></defs><g id="Layer_2" data-name="Layer 2"><g id="Layer_1-2" data-name="Layer 1"><circle class="cls-1" cx="214.92" cy="214.53" r="191"/><path class="cls-2" d="M214.75,429.5A214.69,214.69,0,0,1,62.9,62.9,214.8,214.8,0,1,1,214.75,429.5Zm0-423.26c-115,0-208.5,93.53-208.5,208.5s93.53,208.5,208.5,208.5,208.5-93.53,208.5-208.5S329.72,6.24,214.75,6.24Z"/><path class="cls-3" d="M86.85,163s16.7-12.52,18.26-14.61c1.06-1.42,10-8.6,15.72-13.07a40.92,40.92,0,0,0,8.09-8.53l5.65-8a38.34,38.34,0,0,0,5.21-10.46l5.51-17.27,4.17-11.37c2.85-7.76,14.09-21,14.09-21s10.23-9.32,20.87-14.83c13-6.74,22.89-9.7,38.84-10.22s37.34,14.7,37.34,14.7,11,11.34,13,19.19,6.26,19.92,4.7,28.23,6.26-6.82,6.26,10.92A194.46,194.46,0,0,1,282,138.5s-2.61,27.65-3.13,32.87,0,38.61,7.83,48,.52,22.43,29.74,39.65,75.13,5.22,75.13,5.22-8.35,36-28.17,59-36.52,38.09-55.83,47-32.87,9.39-32.87,9.39l-2.81.26-2.61.43-4.43.26-4.26-.7h0a1.65,1.65,0,0,1-1.34-2.17l1.17-3.39,6.75-9.34,12.91-13.16,13.11-14.63a57.19,57.19,0,0,0,8.61-16.17c1.86-5.43,2.61-19,0-30s-17.71-25.66-17.71-25.66l-17.22-14.09L254.34,234l5.22-13.57,1-8.87-1.06-8.13a8.88,8.88,0,0,0-3.69-6.12l-5.68-4-11-5.74-10-5a13.83,13.83,0,0,0-3.06-1.11l-.55-.13a9.78,9.78,0,0,1-4.13-2.1l-7.82-6.72a9,9,0,0,1-3.12-6.8v-3a8.72,8.72,0,0,1,2.24-5.83l2.46-2.73,9.52,7.79a8.92,8.92,0,0,0,4.47,1.94l3.18.42a3.87,3.87,0,0,0,3.5-1.38l3.33-4.07,3.13-4.17,2.91-.73a1.91,1.91,0,0,0,1.43-1.61l.32-2.56a.3.3,0,0,1,.36-.25l.74.16a2.49,2.49,0,0,0,3-2.86l-.66-3.74a.53.53,0,0,1,.87-.5l.94.81a4.28,4.28,0,0,0,3.62,1l2-.41a1.38,1.38,0,0,0,1.1-1.38l-.46-14.39a3.15,3.15,0,0,1,.21-1.21l1.6-4a2.89,2.89,0,0,1,.75-1.08l5.33-4.88a3,3,0,0,0,.69-.94l2.69-5.72a2,2,0,0,0-1.64-2.89l-29-2.85-9.39,11s-17.74,18.26-21.39,21.39-30.26,16.7-30.26,16.7-15.65,5.22-24.52,11-17.74,21.91-17.74,21.91l-13,22.43L104.1,238.66,86.88,275.18v5.74L98.36,295l25,28.7L144.27,342l21.39,13.57s0,5.22-18.78-4.7-41.74-24.52-41.74-24.52-32.87-29.22-33.39-35-11.48-17.22-16.7-37,3.65-47.75,3.65-47.75l11.48-24.25Z"/><path class="cls-3" d="M124.41,271.46l11.68-12.16a23,23,0,0,0,1.58-1.85L153.11,237l15.74,21.65a17.61,17.61,0,0,1,1.65,2.77l8.13,17.08a16.45,16.45,0,0,1,1.6,7.1v28.23a18.36,18.36,0,0,1-2.61,9.44l-6.78,11.3L149,311.87a33.06,33.06,0,0,1-4.69-6.22Z"/><path class="cls-4" d="M282.46,307.14h0c0-.15,0-.3,0-.45a11.41,11.41,0,0,0-11.34-11.24,11.68,11.68,0,0,0-10.31,6.7h0a11.66,11.66,0,0,0-10.31-6.7,11.41,11.41,0,0,0-11.34,11.24c0,.15,0,.3,0,.45h0s-.64,7.15,7.32,15a182.51,182.51,0,0,0,14.33,12.49,180.43,180.43,0,0,0,14.33-12.49C283.1,314.29,282.46,307.14,282.46,307.14Z"/></g></g></svg>