<svg xmlns="http://www.w3.org/2000/svg" xmlns:xlink="http://www.w3.org/1999/xlink" viewBox="0 0 429.5 429.5"><defs><style>.cls-1{fill:#fef0ee;}.cls-1,.cls-2,.cls-5{stroke:#272726;stroke-linecap:round;stroke-linejoin:round;}.cls-2{fill:none;stroke-width:3px;}.cls-3{fill:url(#linear-gradient);}.cls-4{fill:#1c75bc;stroke:#000;stroke-miterlimit:10;}.cls-5{fill:#be1e2d;}</style><linearGradient id="linear-gradient" x1="848.88" y1="279.61" x2="1220.92" y2="64.81" gradientTransform="matrix(-1, 0, 0, 1, 1249.65, 42.54)" gradientUnits="userSpaceOnUse"><stop offset="0.07" stop-color="#f8e1ab"/><stop offset="0.12" stop-color="#fff3c5"/><stop offset="0.28" stop-color="#dcb272"/><stop offset="0.33" stop-color="#d3a263"/><stop offset="0.39" stop-color="#c7a44c"/><stop offset="0.66" stop-color="#ebdf91"/><stop offset="0.73" stop-color="#f2e4c4"/><stop offset="0.95" stop-color="#d0983f"/><stop offset="1" stop-color="#a2822e"/></linearGradient></defs><g id="Layer_2" data-name="Layer 2"><g id="Layer_1-2" data-name="Layer 1"><circle class="cls-1" cx="214.75" cy="214.74" r="191"/><path class="cls-2" d="M102.9,287.72S93.52,269,87.5,264s-3.35-12,7.7-10.38S121.32,275,128.68,284s15.74,9.71,15.74,9.71c27.12,4,35.08,5.94,49.93,29.38C213.43,353.26,199,367.33,179,366s-30.8-11.38-30.8-11.38-28.5-18-39.55-23-35.49-56.25-41.18-70-1.34-62.61,6.7-62.28,12.39,5,12.39,22.77a249.24,249.24,0,0,0,2,31.68"/><path class="cls-2" d="M326.6,287.72S336,269,342,264s3.35-12-7.7-10.38S308.18,275,300.82,284s-15.74,9.71-15.74,9.71c-27.12,4-35.08,5.94-49.93,29.38-19.08,30.13-4.69,44.2,15.4,42.86s30.8-11.38,30.8-11.38,28.5-18,39.55-23,35.49-56.25,41.18-70,1.34-62.61-6.7-62.28S343,204.35,343,222.1a249.24,249.24,0,0,1-2,31.68"/><path class="cls-3" d="M214.75,429.5A214.69,214.69,0,0,1,62.9,62.9,214.8,214.8,0,1,1,214.75,429.5Zm0-423.26c-115,0-208.5,93.53-208.5,208.5s93.53,208.5,208.5,208.5,208.5-93.53,208.5-208.5S329.72,6.24,214.75,6.24Z"/><path class="cls-4" d="M120.13,146.17s11.62-8.72,12.71-10.17c.74-1,7-6,10.94-9.1a28.58,28.58,0,0,0,5.63-5.94l3.93-5.57a26.79,26.79,0,0,0,3.62-7.28l3.83-12,2.91-7.91c2-5.4,9.81-14.64,9.81-14.64A80,80,0,0,1,188,63.22c9.06-4.69,15.94-6.75,27-7.11s26,10.24,26,10.24,7.63,7.89,9.08,13.35,4.36,13.87,3.27,19.65,4.36-4.75,4.36,7.6A135,135,0,0,1,256,129.1s-1.82,19.25-2.18,22.88,0,26.87,5.45,33.41.36,15.62,20.7,27.6,52.3,3.63,52.3,3.63-5.81,25.06-19.61,41-25.42,26.51-38.86,32.69-22.88,6.54-22.88,6.54l-2,.18-1.82.3-3.09.18-3-.48h0a1.14,1.14,0,0,1-.93-1.51l.81-2.36,4.7-6.5,9-9.16,9.13-10.18a39.77,39.77,0,0,0,6-11.26c1.29-3.78,1.82-13.26,0-20.88s-12.33-17.86-12.33-17.86l-12-9.81-8.7-12,3.63-9.44.73-6.17-.74-5.66a6.19,6.19,0,0,0-2.57-4.26l-3.95-2.79-7.63-4-7-3.48a9.52,9.52,0,0,0-2.13-.77l-.38-.09a6.85,6.85,0,0,1-2.88-1.46l-5.44-4.68a6.24,6.24,0,0,1-2.17-4.73V146a6,6,0,0,1,1.56-4.06l1.71-1.9,6.62,5.42a6.18,6.18,0,0,0,3.11,1.35l2.21.29a2.71,2.71,0,0,0,2.44-1l2.32-2.83,2.18-2.91,2-.51a1.31,1.31,0,0,0,1-1.12l.22-1.78a.2.2,0,0,1,.25-.17l.51.11a1.73,1.73,0,0,0,2.08-2l-.46-2.6a.37.37,0,0,1,.6-.34l.66.56a3,3,0,0,0,2.52.66l1.42-.28a.94.94,0,0,0,.76-1l-.32-10a2,2,0,0,1,.15-.84l1.12-2.79a2,2,0,0,1,.52-.75l3.71-3.4a2.2,2.2,0,0,0,.48-.65l1.88-4a1.41,1.41,0,0,0-1.14-2l-20.16-2-6.54,7.63s-12.35,12.71-14.89,14.89-21.06,11.62-21.06,11.62-10.9,3.63-17.07,7.63-12.35,15.25-12.35,15.25l-9.08,15.62-13.07,20.7-12,25.42v4l8,9.81,17.43,20,14.53,12.71L175,280.21s0,3.63-13.07-3.27-29.05-17.07-29.05-17.07S110,239.53,109.61,235.54s-8-12-11.62-25.79,2.54-33.23,2.54-33.23l8-16.88Z"/><path class="cls-4" d="M146.28,221.65l8.13-8.47a15,15,0,0,0,1.1-1.29l10.75-14.21,11,15.07a12.14,12.14,0,0,1,1.15,1.93L184,226.57a11.41,11.41,0,0,1,1.12,4.94v19.65a12.8,12.8,0,0,1-1.82,6.57l-4.72,7.86-15.18-15.82a23,23,0,0,1-3.27-4.33Z"/><path class="cls-5" d="M256.29,246.49h0c0-.1,0-.21,0-.31a7.94,7.94,0,0,0-7.9-7.82,8.12,8.12,0,0,0-7.18,4.67h0a8.14,8.14,0,0,0-7.18-4.67,8,8,0,0,0-7.9,7.82c0,.1,0,.21,0,.31h0s-.45,5,5.09,10.41a128.92,128.92,0,0,0,10,8.69,127,127,0,0,0,10-8.69C256.73,251.47,256.29,246.49,256.29,246.49Z"/></g></g></svg>