<svg xmlns="http://www.w3.org/2000/svg" xmlns:xlink="http://www.w3.org/1999/xlink" viewBox="0 0 429.5 429.5"><defs><style>.cls-1{fill:#fef0ee;}.cls-1,.cls-2,.cls-3{stroke:#272726;stroke-linecap:round;stroke-linejoin:round;}.cls-2{fill:#be1e2d;}.cls-2,.cls-3{stroke-width:3px;}.cls-3{fill:none;}.cls-4{fill:url(#linear-gradient);}</style><linearGradient id="linear-gradient" x1="-969.48" y1="279.61" x2="-597.44" y2="64.81" gradientTransform="matrix(-1, 0, 0, 1, -568.71, 42.54)" gradientUnits="userSpaceOnUse"><stop offset="0.07" stop-color="#f8e1ab"/><stop offset="0.12" stop-color="#fff3c5"/><stop offset="0.28" stop-color="#dcb272"/><stop offset="0.33" stop-color="#d3a263"/><stop offset="0.39" stop-color="#c7a44c"/><stop offset="0.66" stop-color="#ebdf91"/><stop offset="0.73" stop-color="#f2e4c4"/><stop offset="0.95" stop-color="#d0983f"/><stop offset="1" stop-color="#a2822e"/></linearGradient></defs><g id="Layer_2" data-name="Layer 2"><g id="Layer_1-2" data-name="Layer 1"><circle class="cls-1" cx="214.75" cy="214.16" r="191"/><path class="cls-2" d="M295.68,154.69h0c0-.56,0-1.11,0-1.67,0-22.51-19-42-42.41-42-17.12,0-31.87,11-38.56,25.07h0C208,122,193.3,111,176.18,111c-23.42,0-42.41,19.51-42.41,42,0,.56,0,1.12,0,1.67h0s-2.39,26.74,27.37,55.94c13.53,13.56,28.66,26.44,53.57,46.69,24.91-20.25,40-33.13,53.57-46.69C298.08,181.43,295.68,154.69,295.68,154.69Z"/><path class="cls-3" d="M102.9,261.72S93.52,243,87.5,238s-3.35-12,7.7-10.38S121.32,249,128.68,258s15.74,9.71,15.74,9.71c27.12,4,35.08,5.94,49.93,29.38C213.43,327.26,199,341.33,179,340s-30.8-11.38-30.8-11.38-28.5-18-39.55-23-35.49-56.25-41.18-70-1.34-62.61,6.7-62.28,12.39,5,12.39,22.77a249.24,249.24,0,0,0,2,31.68"/><path class="cls-3" d="M326.6,261.72S336,243,342,238s3.35-12-7.7-10.38S308.18,249,300.82,258s-15.74,9.71-15.74,9.71c-27.12,4-35.08,5.94-49.93,29.38-19.08,30.13-4.69,44.2,15.4,42.86s30.8-11.38,30.8-11.38,28.5-18,39.55-23,35.49-56.25,41.18-70,1.34-62.61-6.7-62.28S343,178.35,343,196.1a249.24,249.24,0,0,1-2,31.68"/><path class="cls-4" d="M214.75,429.5A214.69,214.69,0,0,1,62.9,62.9,214.8,214.8,0,1,1,214.75,429.5Zm0-423.26c-115,0-208.5,93.53-208.5,208.5s93.53,208.5,208.5,208.5,208.5-93.53,208.5-208.5S329.71,6.24,214.75,6.24Z"/></g></g></svg>